<svg xmlns="http://www.w3.org/2000/svg" width="143.003" height="185" viewBox="0 0 143.003 185"><defs><style>.a{fill:#006cb8;}</style></defs><path class="a" d="M130.1,103.578a1.45,1.45,0,1,1,1.45,1.423A1.436,1.436,0,0,1,130.1,103.578Zm-27.983,0A1.45,1.45,0,1,1,103.57,105,1.436,1.436,0,0,1,102.12,103.578Zm-27.985,0A1.451,1.451,0,1,1,75.586,105,1.437,1.437,0,0,1,74.136,103.578Zm-27.982,0A1.45,1.45,0,1,1,47.6,105,1.436,1.436,0,0,1,46.154,103.578Zm-27.985,0A1.45,1.45,0,1,1,19.619,105,1.436,1.436,0,0,1,18.169,103.578Zm-28.169,0a1.436,1.436,0,0,1,1.45-1.423,1.436,1.436,0,0,1,1.45,1.423A1.437,1.437,0,0,1-8.55,105,1.437,1.437,0,0,1-10,103.578ZM130.1,77.685a1.45,1.45,0,1,1,1.45,1.423A1.437,1.437,0,0,1,130.1,77.685Zm-27.983,0a1.45,1.45,0,1,1,1.45,1.423A1.437,1.437,0,0,1,102.12,77.685Zm-27.985,0a1.451,1.451,0,1,1,1.45,1.423A1.437,1.437,0,0,1,74.136,77.685Zm-27.982,0a1.45,1.45,0,1,1,1.45,1.423A1.437,1.437,0,0,1,46.154,77.685Zm-27.985,0a1.45,1.45,0,1,1,1.45,1.423A1.437,1.437,0,0,1,18.169,77.685Zm-28.169,0a1.437,1.437,0,0,1,1.45-1.423A1.437,1.437,0,0,1-7.1,77.685a1.437,1.437,0,0,1-1.45,1.423A1.437,1.437,0,0,1-10,77.685ZM130.1,51.792a1.45,1.45,0,1,1,1.45,1.423A1.437,1.437,0,0,1,130.1,51.792Zm-27.983,0a1.45,1.45,0,1,1,1.45,1.423A1.437,1.437,0,0,1,102.12,51.792Zm-27.985,0a1.451,1.451,0,1,1,1.45,1.423A1.437,1.437,0,0,1,74.136,51.792Zm-27.982,0a1.45,1.45,0,1,1,1.45,1.423A1.437,1.437,0,0,1,46.154,51.792Zm-27.985,0a1.45,1.45,0,1,1,1.45,1.423A1.437,1.437,0,0,1,18.169,51.792Zm-28.169,0a1.437,1.437,0,0,1,1.45-1.423A1.437,1.437,0,0,1-7.1,51.792a1.437,1.437,0,0,1-1.45,1.423A1.437,1.437,0,0,1-10,51.792ZM130.1,25.673a1.45,1.45,0,1,1,1.45,1.423A1.437,1.437,0,0,1,130.1,25.673Zm-27.983,0a1.45,1.45,0,1,1,1.45,1.423A1.437,1.437,0,0,1,102.12,25.673Zm-27.985,0a1.451,1.451,0,1,1,1.45,1.423A1.437,1.437,0,0,1,74.136,25.673Zm-27.982,0A1.45,1.45,0,1,1,47.6,27.1,1.437,1.437,0,0,1,46.154,25.673Zm-27.985,0a1.45,1.45,0,1,1,1.45,1.423A1.437,1.437,0,0,1,18.169,25.673Zm-28.169,0A1.437,1.437,0,0,1-8.55,24.25,1.437,1.437,0,0,1-7.1,25.673,1.436,1.436,0,0,1-8.55,27.1,1.436,1.436,0,0,1-10,25.673ZM130.1-.445a1.436,1.436,0,0,1,1.45-1.423A1.436,1.436,0,0,1,133-.445a1.437,1.437,0,0,1-1.45,1.423A1.437,1.437,0,0,1,130.1-.445Zm-27.983,0a1.436,1.436,0,0,1,1.45-1.423,1.436,1.436,0,0,1,1.45,1.423A1.437,1.437,0,0,1,103.57.978,1.437,1.437,0,0,1,102.12-.445Zm-27.985,0a1.437,1.437,0,0,1,1.45-1.423A1.437,1.437,0,0,1,77.036-.445,1.437,1.437,0,0,1,75.586.978,1.437,1.437,0,0,1,74.136-.445Zm-27.982,0A1.436,1.436,0,0,1,47.6-1.868a1.436,1.436,0,0,1,1.45,1.423A1.437,1.437,0,0,1,47.6.978,1.437,1.437,0,0,1,46.154-.445Zm-27.985,0a1.436,1.436,0,0,1,1.45-1.423,1.436,1.436,0,0,1,1.45,1.423A1.437,1.437,0,0,1,19.619.978,1.437,1.437,0,0,1,18.169-.445ZM-10-.445A1.436,1.436,0,0,1-8.55-1.868,1.436,1.436,0,0,1-7.1-.445,1.437,1.437,0,0,1-8.55.978,1.437,1.437,0,0,1-10-.445ZM130.1-26.564a1.437,1.437,0,0,1,1.45-1.423A1.437,1.437,0,0,1,133-26.564a1.437,1.437,0,0,1-1.45,1.423A1.437,1.437,0,0,1,130.1-26.564Zm-27.983,0a1.437,1.437,0,0,1,1.45-1.423,1.437,1.437,0,0,1,1.45,1.423,1.437,1.437,0,0,1-1.45,1.423A1.437,1.437,0,0,1,102.12-26.564Zm-27.985,0a1.437,1.437,0,0,1,1.45-1.423,1.437,1.437,0,0,1,1.451,1.423,1.437,1.437,0,0,1-1.451,1.423A1.437,1.437,0,0,1,74.136-26.564Zm-27.982,0a1.437,1.437,0,0,1,1.45-1.423,1.437,1.437,0,0,1,1.45,1.423,1.437,1.437,0,0,1-1.45,1.423A1.437,1.437,0,0,1,46.154-26.564Zm-27.985,0a1.437,1.437,0,0,1,1.45-1.423,1.437,1.437,0,0,1,1.45,1.423,1.437,1.437,0,0,1-1.45,1.423A1.437,1.437,0,0,1,18.169-26.564Zm-28.169,0a1.437,1.437,0,0,1,1.45-1.423A1.437,1.437,0,0,1-7.1-26.564a1.437,1.437,0,0,1-1.45,1.423A1.437,1.437,0,0,1-10-26.564ZM130.1-52.682a1.437,1.437,0,0,1,1.45-1.423A1.437,1.437,0,0,1,133-52.682a1.437,1.437,0,0,1-1.45,1.423A1.437,1.437,0,0,1,130.1-52.682Zm-27.983,0a1.437,1.437,0,0,1,1.45-1.423,1.437,1.437,0,0,1,1.45,1.423,1.437,1.437,0,0,1-1.45,1.423A1.437,1.437,0,0,1,102.12-52.682Zm-27.985,0a1.437,1.437,0,0,1,1.45-1.423,1.437,1.437,0,0,1,1.451,1.423,1.437,1.437,0,0,1-1.451,1.423A1.437,1.437,0,0,1,74.136-52.682Zm-27.982,0a1.437,1.437,0,0,1,1.45-1.423,1.437,1.437,0,0,1,1.45,1.423A1.437,1.437,0,0,1,47.6-51.26,1.437,1.437,0,0,1,46.154-52.682Zm-27.985,0a1.437,1.437,0,0,1,1.45-1.423,1.437,1.437,0,0,1,1.45,1.423,1.437,1.437,0,0,1-1.45,1.423A1.437,1.437,0,0,1,18.169-52.682Zm-28.169,0a1.437,1.437,0,0,1,1.45-1.423A1.437,1.437,0,0,1-7.1-52.682,1.437,1.437,0,0,1-8.55-51.26,1.437,1.437,0,0,1-10-52.682Zm84.136-25.73a1.437,1.437,0,0,1,1.45-1.423,1.437,1.437,0,0,1,1.451,1.423,1.437,1.437,0,0,1-1.451,1.423A1.437,1.437,0,0,1,74.136-78.412Zm55.967-.163A1.437,1.437,0,0,1,131.553-80,1.437,1.437,0,0,1,133-78.575a1.436,1.436,0,0,1-1.45,1.423A1.436,1.436,0,0,1,130.1-78.575Zm-27.983,0A1.437,1.437,0,0,1,103.57-80a1.437,1.437,0,0,1,1.45,1.423,1.436,1.436,0,0,1-1.45,1.423A1.436,1.436,0,0,1,102.12-78.575Zm-55.966,0A1.437,1.437,0,0,1,47.6-80a1.437,1.437,0,0,1,1.45,1.423,1.436,1.436,0,0,1-1.45,1.423A1.436,1.436,0,0,1,46.154-78.575Zm-27.985,0A1.437,1.437,0,0,1,19.619-80a1.437,1.437,0,0,1,1.45,1.423,1.436,1.436,0,0,1-1.45,1.423A1.436,1.436,0,0,1,18.169-78.575Zm-28.169,0A1.437,1.437,0,0,1-8.55-80,1.437,1.437,0,0,1-7.1-78.575a1.436,1.436,0,0,1-1.45,1.423A1.436,1.436,0,0,1-10-78.575Z" transform="translate(10 79.998)"/></svg>